<mxfile host="www.draw.io" modified="2019-10-20T04:02:29.376Z" agent="Mozilla/5.0 (Windows NT 10.0; Win64; x64; rv:69.0) Gecko/20100101 Firefox/69.0" etag="7fQeqzSxklV9iSujUwUu" version="12.1.3" type="github" pages="1">
  <diagram id="fXuAVrspEKafF17kZ9Ae" name="Page-1">
    <mxGraphModel dx="1451" dy="1156" grid="1" gridSize="10" guides="1" tooltips="1" connect="1" arrows="1" fold="1" page="1" pageScale="1" pageWidth="827" pageHeight="1169" math="0" shadow="0">
      <root>
        <mxCell id="0"/>
        <mxCell id="1" parent="0"/>
        <mxCell id="LsSuy4AF0oOqetUuykuO-6" value="" style="edgeStyle=orthogonalEdgeStyle;rounded=0;orthogonalLoop=1;jettySize=auto;html=1;" parent="1" source="LsSuy4AF0oOqetUuykuO-1" target="LsSuy4AF0oOqetUuykuO-5" edge="1">
          <mxGeometry relative="1" as="geometry">
            <Array as="points">
              <mxPoint x="440" y="240"/>
              <mxPoint x="440" y="240"/>
            </Array>
          </mxGeometry>
        </mxCell>
        <mxCell id="LsSuy4AF0oOqetUuykuO-7" value="&lt;div&gt;&lt;u&gt;&lt;font style=&quot;font-size: 9px&quot;&gt;sampled_bit == 0&lt;br&gt;&lt;/font&gt;&lt;/u&gt;&lt;font style=&quot;font-size: 9px&quot;&gt;reset frame_buf&lt;/font&gt;&lt;u&gt;&lt;font style=&quot;font-size: 9px&quot;&gt;[]&lt;br&gt;&lt;/font&gt;&lt;/u&gt;&lt;/div&gt;" style="text;html=1;resizable=0;points=[];align=center;verticalAlign=middle;labelBackgroundColor=#ffffff;" parent="LsSuy4AF0oOqetUuykuO-6" vertex="1" connectable="0">
          <mxGeometry x="-0.2369" relative="1" as="geometry">
            <mxPoint x="15.5" y="-20" as="offset"/>
          </mxGeometry>
        </mxCell>
        <mxCell id="LsSuy4AF0oOqetUuykuO-1" value="Bus idle" style="ellipse;whiteSpace=wrap;html=1;aspect=fixed;" parent="1" vertex="1">
          <mxGeometry x="310" y="190" width="100" height="100" as="geometry"/>
        </mxCell>
        <mxCell id="LsSuy4AF0oOqetUuykuO-37" value="" style="edgeStyle=orthogonalEdgeStyle;rounded=0;orthogonalLoop=1;jettySize=auto;html=1;" parent="1" source="LsSuy4AF0oOqetUuykuO-5" target="LsSuy4AF0oOqetUuykuO-36" edge="1">
          <mxGeometry relative="1" as="geometry"/>
        </mxCell>
        <mxCell id="LsSuy4AF0oOqetUuykuO-42" value="&lt;div&gt;&lt;span class=&quot;st&quot;&gt;ε&lt;/span&gt;&lt;/div&gt;" style="text;html=1;resizable=0;points=[];align=center;verticalAlign=middle;labelBackgroundColor=#ffffff;" parent="LsSuy4AF0oOqetUuykuO-37" vertex="1" connectable="0">
          <mxGeometry x="-0.2096" y="1" relative="1" as="geometry">
            <mxPoint x="6.5" y="-10.5" as="offset"/>
          </mxGeometry>
        </mxCell>
        <mxCell id="LsSuy4AF0oOqetUuykuO-5" value="Start-of-frame&lt;font style=&quot;font-size: 8px&quot;&gt;&lt;br&gt;&lt;/font&gt;" style="ellipse;whiteSpace=wrap;html=1;aspect=fixed;" parent="1" vertex="1">
          <mxGeometry x="590" y="180" width="103" height="103" as="geometry"/>
        </mxCell>
        <mxCell id="LsSuy4AF0oOqetUuykuO-49" value="" style="edgeStyle=orthogonalEdgeStyle;rounded=0;orthogonalLoop=1;jettySize=auto;html=1;" parent="1" source="LsSuy4AF0oOqetUuykuO-36" target="LsSuy4AF0oOqetUuykuO-48" edge="1">
          <mxGeometry relative="1" as="geometry"/>
        </mxCell>
        <mxCell id="LsSuy4AF0oOqetUuykuO-50" value="&lt;div&gt;&lt;font style=&quot;font-size: 9px&quot;&gt;&lt;u&gt;bit_cnt == 11&lt;br&gt;&lt;/u&gt;rtr_or_srr = sampled_bit &amp;amp;&amp;amp; bit_cnt = 0&lt;br&gt;&lt;u&gt;&lt;/u&gt;&lt;/font&gt;&lt;/div&gt;" style="text;html=1;resizable=0;points=[];align=center;verticalAlign=middle;labelBackgroundColor=#ffffff;" parent="LsSuy4AF0oOqetUuykuO-49" vertex="1" connectable="0">
          <mxGeometry x="-0.2933" y="-2" relative="1" as="geometry">
            <mxPoint x="90.5" y="12.5" as="offset"/>
          </mxGeometry>
        </mxCell>
        <mxCell id="LsSuy4AF0oOqetUuykuO-36" value="Identifier I" style="ellipse;whiteSpace=wrap;html=1;aspect=fixed;" parent="1" vertex="1">
          <mxGeometry x="770" y="180" width="103" height="103" as="geometry"/>
        </mxCell>
        <mxCell id="LsSuy4AF0oOqetUuykuO-48" value="Identifier extension" style="ellipse;whiteSpace=wrap;html=1;aspect=fixed;" parent="1" vertex="1">
          <mxGeometry x="770" y="380" width="103" height="103" as="geometry"/>
        </mxCell>
        <mxCell id="LsSuy4AF0oOqetUuykuO-64" value="Identifier II" style="ellipse;whiteSpace=wrap;html=1;aspect=fixed;" parent="1" vertex="1">
          <mxGeometry x="641.5" y="553" width="103" height="103" as="geometry"/>
        </mxCell>
        <mxCell id="LsSuy4AF0oOqetUuykuO-61" value="Data length code " style="ellipse;whiteSpace=wrap;html=1;aspect=fixed;" parent="1" vertex="1">
          <mxGeometry x="890" y="553" width="103" height="103" as="geometry"/>
        </mxCell>
        <mxCell id="CigY5o_EXDTEon-3jBMa-17" value="" style="edgeStyle=orthogonalEdgeStyle;rounded=0;orthogonalLoop=1;jettySize=auto;html=1;" edge="1" parent="1" source="LsSuy4AF0oOqetUuykuO-85" target="CigY5o_EXDTEon-3jBMa-16">
          <mxGeometry relative="1" as="geometry"/>
        </mxCell>
        <mxCell id="CigY5o_EXDTEon-3jBMa-18" value="&lt;font style=&quot;font-size: 9px&quot;&gt;bit_cnt == 15 &amp;amp;&amp;amp; valid CRC&lt;br&gt;&lt;/font&gt;" style="text;html=1;resizable=0;points=[];align=center;verticalAlign=middle;labelBackgroundColor=#ffffff;" vertex="1" connectable="0" parent="CigY5o_EXDTEon-3jBMa-17">
          <mxGeometry x="-0.25" y="1" relative="1" as="geometry">
            <mxPoint x="-16" y="-12.5" as="offset"/>
          </mxGeometry>
        </mxCell>
        <mxCell id="LsSuy4AF0oOqetUuykuO-85" value="CRC" style="ellipse;whiteSpace=wrap;html=1;aspect=fixed;" parent="1" vertex="1">
          <mxGeometry x="770" y="780" width="103" height="103" as="geometry"/>
        </mxCell>
        <mxCell id="CigY5o_EXDTEon-3jBMa-16" value="CRC delimiter" style="ellipse;whiteSpace=wrap;html=1;aspect=fixed;" vertex="1" parent="1">
          <mxGeometry x="538.5" y="780" width="103" height="103" as="geometry"/>
        </mxCell>
        <mxCell id="CigY5o_EXDTEon-3jBMa-29" value="" style="edgeStyle=orthogonalEdgeStyle;rounded=0;orthogonalLoop=1;jettySize=auto;html=1;" edge="1" parent="1" source="CigY5o_EXDTEon-3jBMa-22" target="CigY5o_EXDTEon-3jBMa-28">
          <mxGeometry relative="1" as="geometry"/>
        </mxCell>
        <mxCell id="CigY5o_EXDTEon-3jBMa-38" value="&lt;div&gt;&lt;u&gt;&lt;span class=&quot;st&quot;&gt;ε&lt;/span&gt;&lt;/u&gt;&lt;/div&gt;&lt;font style=&quot;font-size: 9px&quot;&gt;write &quot;0&quot; to bus&lt;/font&gt; " style="text;html=1;resizable=0;points=[];align=center;verticalAlign=middle;labelBackgroundColor=#ffffff;" vertex="1" connectable="0" parent="CigY5o_EXDTEon-3jBMa-29">
          <mxGeometry x="-0.2852" y="-3" relative="1" as="geometry">
            <mxPoint x="-13.5" y="-21.5" as="offset"/>
          </mxGeometry>
        </mxCell>
        <mxCell id="CigY5o_EXDTEon-3jBMa-22" value="ACK slot" style="ellipse;whiteSpace=wrap;html=1;aspect=fixed;" vertex="1" parent="1">
          <mxGeometry x="288.5" y="723" width="103" height="103" as="geometry"/>
        </mxCell>
        <mxCell id="CigY5o_EXDTEon-3jBMa-31" value="" style="edgeStyle=orthogonalEdgeStyle;rounded=0;orthogonalLoop=1;jettySize=auto;html=1;" edge="1" parent="1" source="CigY5o_EXDTEon-3jBMa-28" target="CigY5o_EXDTEon-3jBMa-30">
          <mxGeometry relative="1" as="geometry">
            <Array as="points">
              <mxPoint x="140.5" y="683"/>
              <mxPoint x="140.5" y="683"/>
            </Array>
          </mxGeometry>
        </mxCell>
        <mxCell id="CigY5o_EXDTEon-3jBMa-33" value="&lt;div&gt;&lt;span class=&quot;st&quot;&gt;ε&lt;/span&gt;&lt;/div&gt;" style="text;html=1;resizable=0;points=[];align=center;verticalAlign=middle;labelBackgroundColor=#ffffff;" vertex="1" connectable="0" parent="CigY5o_EXDTEon-3jBMa-31">
          <mxGeometry x="-0.2538" y="-2" relative="1" as="geometry">
            <mxPoint x="-11" as="offset"/>
          </mxGeometry>
        </mxCell>
        <mxCell id="CigY5o_EXDTEon-3jBMa-28" value="ACK delimiter" style="ellipse;whiteSpace=wrap;html=1;aspect=fixed;" vertex="1" parent="1">
          <mxGeometry x="88.5" y="723" width="103" height="103" as="geometry"/>
        </mxCell>
        <mxCell id="CigY5o_EXDTEon-3jBMa-30" value="End-of-frame" style="ellipse;whiteSpace=wrap;html=1;aspect=fixed;" vertex="1" parent="1">
          <mxGeometry x="88.5" y="540" width="103" height="103" as="geometry"/>
        </mxCell>
        <mxCell id="LsSuy4AF0oOqetUuykuO-79" value="Data" style="ellipse;whiteSpace=wrap;html=1;aspect=fixed;" parent="1" vertex="1">
          <mxGeometry x="1020" y="780" width="103" height="103" as="geometry"/>
        </mxCell>
        <mxCell id="LsSuy4AF0oOqetUuykuO-4" value="" style="endArrow=classic;html=1;" parent="1" edge="1">
          <mxGeometry width="50" height="50" relative="1" as="geometry">
            <mxPoint x="360" y="140" as="sourcePoint"/>
            <mxPoint x="359.5" y="190" as="targetPoint"/>
          </mxGeometry>
        </mxCell>
        <mxCell id="LsSuy4AF0oOqetUuykuO-15" value="" style="curved=1;endArrow=classic;html=1;entryX=0.027;entryY=0.311;entryDx=0;entryDy=0;exitX=0;exitY=0.5;exitDx=0;exitDy=0;entryPerimeter=0;" parent="1" source="LsSuy4AF0oOqetUuykuO-1" target="LsSuy4AF0oOqetUuykuO-1" edge="1">
          <mxGeometry width="50" height="50" relative="1" as="geometry">
            <mxPoint x="310" y="250" as="sourcePoint"/>
            <mxPoint x="310" y="200" as="targetPoint"/>
            <Array as="points">
              <mxPoint x="290" y="244"/>
              <mxPoint x="270" y="235"/>
              <mxPoint x="280" y="220"/>
            </Array>
          </mxGeometry>
        </mxCell>
        <mxCell id="LsSuy4AF0oOqetUuykuO-21" value="&lt;div&gt;&lt;font style=&quot;font-size: 9px&quot;&gt;sampled_bit == 1&lt;br&gt;&lt;/font&gt;&lt;/div&gt;" style="text;html=1;resizable=0;points=[];align=center;verticalAlign=middle;labelBackgroundColor=#ffffff;direction=south;" parent="1" vertex="1" connectable="0">
          <mxGeometry x="209.92857142857144" y="250" as="geometry">
            <mxPoint x="18.5" y="-15" as="offset"/>
          </mxGeometry>
        </mxCell>
        <mxCell id="LsSuy4AF0oOqetUuykuO-30" value="" style="edgeStyle=orthogonalEdgeStyle;rounded=0;orthogonalLoop=1;jettySize=auto;html=1;" parent="1" source="LsSuy4AF0oOqetUuykuO-23" target="LsSuy4AF0oOqetUuykuO-29" edge="1">
          <mxGeometry relative="1" as="geometry"/>
        </mxCell>
        <mxCell id="LsSuy4AF0oOqetUuykuO-23" value="Intermission" style="ellipse;whiteSpace=wrap;html=1;aspect=fixed;" parent="1" vertex="1">
          <mxGeometry x="190" y="350" width="100" height="100" as="geometry"/>
        </mxCell>
        <mxCell id="LsSuy4AF0oOqetUuykuO-29" value="Suspend transmission" style="ellipse;whiteSpace=wrap;html=1;aspect=fixed;" parent="1" vertex="1">
          <mxGeometry x="440" y="350" width="100" height="100" as="geometry"/>
        </mxCell>
        <mxCell id="LsSuy4AF0oOqetUuykuO-24" value="" style="curved=1;endArrow=classic;html=1;entryX=0;entryY=1;entryDx=0;entryDy=0;exitX=0.5;exitY=0;exitDx=0;exitDy=0;" parent="1" source="LsSuy4AF0oOqetUuykuO-23" target="LsSuy4AF0oOqetUuykuO-1" edge="1">
          <mxGeometry width="50" height="50" relative="1" as="geometry">
            <mxPoint x="270" y="341.5" as="sourcePoint"/>
            <mxPoint x="320" y="291.5" as="targetPoint"/>
            <Array as="points">
              <mxPoint x="270" y="291.5"/>
            </Array>
          </mxGeometry>
        </mxCell>
        <mxCell id="LsSuy4AF0oOqetUuykuO-25" value="&lt;font style=&quot;font-size: 9px&quot;&gt;recessive_bit_cnt == 3&lt;/font&gt;" style="text;html=1;resizable=0;points=[];align=center;verticalAlign=middle;labelBackgroundColor=#ffffff;" parent="LsSuy4AF0oOqetUuykuO-24" vertex="1" connectable="0">
          <mxGeometry x="-0.3526" y="-6" relative="1" as="geometry">
            <mxPoint x="-56" y="-3" as="offset"/>
          </mxGeometry>
        </mxCell>
        <mxCell id="LsSuy4AF0oOqetUuykuO-26" value="" style="curved=1;endArrow=classic;html=1;entryX=0;entryY=1;entryDx=0;entryDy=0;exitX=0.37;exitY=0.983;exitDx=0;exitDy=0;exitPerimeter=0;" parent="1" source="LsSuy4AF0oOqetUuykuO-29" target="LsSuy4AF0oOqetUuykuO-29" edge="1">
          <mxGeometry width="50" height="50" relative="1" as="geometry">
            <mxPoint x="474.29999999999995" y="511" as="sourcePoint"/>
            <mxPoint x="473.5999999999999" y="492.29999999999995" as="targetPoint"/>
            <Array as="points">
              <mxPoint x="470" y="470"/>
              <mxPoint x="450" y="470"/>
            </Array>
          </mxGeometry>
        </mxCell>
        <mxCell id="LsSuy4AF0oOqetUuykuO-28" value="&lt;div&gt;&lt;u&gt;&lt;font style=&quot;font-size: 9px&quot;&gt;sampled_bit == 1&lt;br&gt;&lt;/font&gt;&lt;/u&gt;&lt;font style=&quot;font-size: 9px&quot;&gt;recessive_bit_cnt++&lt;/font&gt;&lt;u&gt;&lt;font style=&quot;font-size: 9px&quot;&gt;&lt;br&gt;&lt;/font&gt;&lt;/u&gt;&lt;/div&gt;" style="text;html=1;resizable=0;points=[];align=center;verticalAlign=middle;labelBackgroundColor=#ffffff;direction=south;" parent="1" vertex="1" connectable="0">
          <mxGeometry x="119.92857142857144" y="420" as="geometry">
            <mxPoint x="-3.5" y="-12" as="offset"/>
          </mxGeometry>
        </mxCell>
        <mxCell id="LsSuy4AF0oOqetUuykuO-31" value="" style="curved=1;endArrow=classic;html=1;entryX=1;entryY=1;entryDx=0;entryDy=0;exitX=0.5;exitY=0;exitDx=0;exitDy=0;" parent="1" source="LsSuy4AF0oOqetUuykuO-29" target="LsSuy4AF0oOqetUuykuO-1" edge="1">
          <mxGeometry width="50" height="50" relative="1" as="geometry">
            <mxPoint x="430.0000000000001" y="350" as="sourcePoint"/>
            <mxPoint x="484.6446609406745" y="275.3553390593256" as="targetPoint"/>
            <Array as="points">
              <mxPoint x="450" y="291"/>
            </Array>
          </mxGeometry>
        </mxCell>
        <mxCell id="LsSuy4AF0oOqetUuykuO-32" value="&lt;font style=&quot;font-size: 9px&quot;&gt;recessive_bit_cnt == 8&lt;/font&gt;" style="text;html=1;resizable=0;points=[];align=center;verticalAlign=middle;labelBackgroundColor=#ffffff;" parent="LsSuy4AF0oOqetUuykuO-31" vertex="1" connectable="0">
          <mxGeometry x="-0.3526" y="-6" relative="1" as="geometry">
            <mxPoint x="48.5" y="8" as="offset"/>
          </mxGeometry>
        </mxCell>
        <mxCell id="LsSuy4AF0oOqetUuykuO-33" value="&lt;font style=&quot;font-size: 9px&quot;&gt;recessive_bit_cnt == 3&lt;/font&gt;&lt;br&gt;&lt;font style=&quot;font-size: 9px&quot;&gt;&amp;amp;&amp;amp; error_passive&lt;/font&gt;" style="text;html=1;resizable=0;points=[];align=center;verticalAlign=middle;labelBackgroundColor=#ffffff;" parent="1" vertex="1" connectable="0">
          <mxGeometry x="-0.3526" y="-6" relative="1" as="geometry">
            <mxPoint x="360" y="420" as="offset"/>
          </mxGeometry>
        </mxCell>
        <mxCell id="LsSuy4AF0oOqetUuykuO-35" value="" style="curved=1;endArrow=classic;html=1;entryX=0.5;entryY=1;entryDx=0;entryDy=0;exitX=1;exitY=0.5;exitDx=0;exitDy=0;" parent="1" source="LsSuy4AF0oOqetUuykuO-29" target="LsSuy4AF0oOqetUuykuO-5" edge="1">
          <mxGeometry width="50" height="50" relative="1" as="geometry">
            <mxPoint x="570" y="360" as="sourcePoint"/>
            <mxPoint x="620" y="310" as="targetPoint"/>
            <Array as="points">
              <mxPoint x="620" y="370"/>
            </Array>
          </mxGeometry>
        </mxCell>
        <mxCell id="LsSuy4AF0oOqetUuykuO-38" value="&lt;div&gt;&lt;u&gt;&lt;font style=&quot;font-size: 9px&quot;&gt;sampled_bit == 1&lt;br&gt;&lt;/font&gt;&lt;/u&gt;&lt;font style=&quot;font-size: 9px&quot;&gt;recessive_bit_cnt++&lt;/font&gt;&lt;u&gt;&lt;font style=&quot;font-size: 9px&quot;&gt;&lt;br&gt;&lt;/font&gt;&lt;/u&gt;&lt;/div&gt;" style="text;html=1;resizable=0;points=[];align=center;verticalAlign=middle;labelBackgroundColor=#ffffff;direction=south;" parent="1" vertex="1" connectable="0">
          <mxGeometry x="439.92857142857144" y="510" as="geometry">
            <mxPoint x="18.5" y="-15" as="offset"/>
          </mxGeometry>
        </mxCell>
        <mxCell id="LsSuy4AF0oOqetUuykuO-40" value="&lt;div&gt;&lt;u&gt;&lt;font style=&quot;font-size: 9px&quot;&gt;sampled_bit == 0&lt;br&gt;&lt;/font&gt;&lt;/u&gt;&lt;font style=&quot;font-size: 9px&quot;&gt;reset frame_buf&lt;/font&gt;&lt;u&gt;&lt;font style=&quot;font-size: 9px&quot;&gt;[]&lt;br&gt;&lt;/font&gt;&lt;/u&gt;&lt;/div&gt;" style="text;html=1;resizable=0;points=[];align=center;verticalAlign=middle;labelBackgroundColor=#ffffff;" parent="1" vertex="1" connectable="0">
          <mxGeometry x="-0.2369" relative="1" as="geometry">
            <mxPoint x="650" y="370" as="offset"/>
          </mxGeometry>
        </mxCell>
        <mxCell id="LsSuy4AF0oOqetUuykuO-43" value="" style="curved=1;endArrow=classic;html=1;entryX=0.248;entryY=0.063;entryDx=0;entryDy=0;entryPerimeter=0;exitX=0.65;exitY=0.03;exitDx=0;exitDy=0;exitPerimeter=0;" parent="1" source="LsSuy4AF0oOqetUuykuO-36" target="LsSuy4AF0oOqetUuykuO-36" edge="1">
          <mxGeometry width="50" height="50" relative="1" as="geometry">
            <mxPoint x="839" y="180" as="sourcePoint"/>
            <mxPoint x="830" y="160" as="targetPoint"/>
            <Array as="points">
              <mxPoint x="820" y="140"/>
            </Array>
          </mxGeometry>
        </mxCell>
        <mxCell id="LsSuy4AF0oOqetUuykuO-44" value="&lt;div&gt;&lt;font style=&quot;font-size: 9px&quot;&gt;&lt;font style=&quot;font-size: 9px&quot;&gt;frame_buf[] += sampled_bit &lt;/font&gt;&amp;amp;&amp;amp; &lt;/font&gt;&lt;font style=&quot;font-size: 9px&quot;&gt;&lt;font style=&quot;font-size: 9px&quot;&gt;bit_cnt++&lt;/font&gt;&lt;br&gt;&lt;/font&gt;&lt;/div&gt;" style="text;html=1;resizable=0;points=[];align=center;verticalAlign=middle;labelBackgroundColor=#ffffff;" parent="LsSuy4AF0oOqetUuykuO-43" vertex="1" connectable="0">
          <mxGeometry x="-0.4688" y="10" relative="1" as="geometry">
            <mxPoint x="3.5" y="-12.5" as="offset"/>
          </mxGeometry>
        </mxCell>
        <mxCell id="LsSuy4AF0oOqetUuykuO-69" value="" style="curved=1;endArrow=classic;html=1;entryX=0.047;entryY=0.687;entryDx=0;entryDy=0;entryPerimeter=0;exitX=0.007;exitY=0.385;exitDx=0;exitDy=0;exitPerimeter=0;" parent="1" source="LsSuy4AF0oOqetUuykuO-64" target="LsSuy4AF0oOqetUuykuO-64" edge="1">
          <mxGeometry width="50" height="50" relative="1" as="geometry">
            <mxPoint x="601.4499999999998" y="606.0899999999999" as="sourcePoint"/>
            <mxPoint x="560.0439999999999" y="609.4889999999999" as="targetPoint"/>
            <Array as="points">
              <mxPoint x="570" y="603"/>
            </Array>
          </mxGeometry>
        </mxCell>
        <mxCell id="LsSuy4AF0oOqetUuykuO-70" value="&lt;div&gt;&lt;font style=&quot;font-size: 9px&quot;&gt;&lt;font style=&quot;font-size: 9px&quot;&gt;frame_buf[] += sampled_bit&lt;br&gt;&lt;/font&gt;&amp;amp;&amp;amp; &lt;/font&gt;&lt;font style=&quot;font-size: 9px&quot;&gt;&lt;font style=&quot;font-size: 9px&quot;&gt;bit_cnt++&lt;/font&gt;&lt;br&gt;&lt;/font&gt;&lt;/div&gt;" style="text;html=1;resizable=0;points=[];align=center;verticalAlign=middle;labelBackgroundColor=#ffffff;" parent="LsSuy4AF0oOqetUuykuO-69" vertex="1" connectable="0">
          <mxGeometry x="-0.4688" y="10" relative="1" as="geometry">
            <mxPoint x="-64" y="-8" as="offset"/>
          </mxGeometry>
        </mxCell>
        <mxCell id="LsSuy4AF0oOqetUuykuO-77" value="&lt;div&gt;&lt;u&gt;&lt;font style=&quot;font-size: 9px&quot;&gt;bit_cnt == 18&lt;/font&gt;&lt;/u&gt;&lt;/div&gt;&lt;div&gt;&lt;font style=&quot;font-size: 9px&quot;&gt;RTR = sampled_bit &amp;amp;&amp;amp; read r0, r1&lt;/font&gt;&lt;u&gt;&lt;font style=&quot;font-size: 9px&quot;&gt;&lt;br&gt;&lt;/font&gt;&lt;/u&gt;&lt;/div&gt;" style="text;html=1;resizable=0;points=[];align=center;verticalAlign=middle;labelBackgroundColor=#ffffff;" parent="1" vertex="1" connectable="0">
          <mxGeometry x="-0.1951" y="3" relative="1" as="geometry">
            <mxPoint x="817.5" y="580" as="offset"/>
          </mxGeometry>
        </mxCell>
        <mxCell id="LsSuy4AF0oOqetUuykuO-78" value="" style="curved=1;endArrow=classic;html=1;entryX=0;entryY=0.5;entryDx=0;entryDy=0;exitX=1;exitY=0.5;exitDx=0;exitDy=0;" parent="1" source="LsSuy4AF0oOqetUuykuO-64" target="LsSuy4AF0oOqetUuykuO-61" edge="1">
          <mxGeometry width="50" height="50" relative="1" as="geometry">
            <mxPoint x="950" y="595" as="sourcePoint"/>
            <mxPoint x="1000" y="545" as="targetPoint"/>
            <Array as="points"/>
          </mxGeometry>
        </mxCell>
        <mxCell id="LsSuy4AF0oOqetUuykuO-83" value="" style="curved=1;endArrow=classic;html=1;entryX=0.5;entryY=0;entryDx=0;entryDy=0;exitX=1;exitY=1;exitDx=0;exitDy=0;" parent="1" source="LsSuy4AF0oOqetUuykuO-61" target="LsSuy4AF0oOqetUuykuO-79" edge="1">
          <mxGeometry width="50" height="50" relative="1" as="geometry">
            <mxPoint x="1053" y="543" as="sourcePoint"/>
            <mxPoint x="1103" y="493" as="targetPoint"/>
            <Array as="points">
              <mxPoint x="1040" y="670"/>
            </Array>
          </mxGeometry>
        </mxCell>
        <mxCell id="LsSuy4AF0oOqetUuykuO-84" value="&lt;div&gt;&lt;u&gt;&lt;font style=&quot;font-size: 9px&quot;&gt;bit_cnt == 4 &amp;amp;&amp;amp; RTR == 0&lt;br&gt;&lt;/font&gt;&lt;/u&gt;&lt;font style=&quot;font-size: 9px&quot;&gt;data_len = DLC&lt;/font&gt;&lt;u&gt;&lt;font style=&quot;font-size: 9px&quot;&gt;&lt;br&gt;&lt;/font&gt;&lt;/u&gt;&lt;/div&gt;" style="text;html=1;resizable=0;points=[];align=center;verticalAlign=middle;labelBackgroundColor=#ffffff;" parent="LsSuy4AF0oOqetUuykuO-83" vertex="1" connectable="0">
          <mxGeometry x="0.1193" y="-16" relative="1" as="geometry">
            <mxPoint x="56" y="-36.5" as="offset"/>
          </mxGeometry>
        </mxCell>
        <mxCell id="LsSuy4AF0oOqetUuykuO-87" value="" style="curved=1;endArrow=classic;html=1;entryX=1;entryY=0.5;entryDx=0;entryDy=0;exitX=0;exitY=0.5;exitDx=0;exitDy=0;" parent="1" source="LsSuy4AF0oOqetUuykuO-79" target="LsSuy4AF0oOqetUuykuO-85" edge="1">
          <mxGeometry width="50" height="50" relative="1" as="geometry">
            <mxPoint x="1346.9159992311033" y="523.5840007688971" as="sourcePoint"/>
            <mxPoint x="1448.999999999999" y="450" as="targetPoint"/>
            <Array as="points"/>
          </mxGeometry>
        </mxCell>
        <mxCell id="CigY5o_EXDTEon-3jBMa-3" value="&lt;font style=&quot;font-size: 9px&quot;&gt;len(data_buf) == data_len&lt;br&gt;&lt;/font&gt;" style="text;html=1;resizable=0;points=[];align=center;verticalAlign=middle;labelBackgroundColor=#ffffff;" vertex="1" connectable="0" parent="LsSuy4AF0oOqetUuykuO-87">
          <mxGeometry x="-0.2515" y="-4" relative="1" as="geometry">
            <mxPoint x="-15" y="22.5" as="offset"/>
          </mxGeometry>
        </mxCell>
        <mxCell id="CigY5o_EXDTEon-3jBMa-1" value="" style="curved=1;endArrow=classic;html=1;exitX=1;exitY=0;exitDx=0;exitDy=0;entryX=1;entryY=0.5;entryDx=0;entryDy=0;" edge="1" parent="1" source="LsSuy4AF0oOqetUuykuO-79" target="LsSuy4AF0oOqetUuykuO-79">
          <mxGeometry width="50" height="50" relative="1" as="geometry">
            <mxPoint x="1159.9769999999999" y="810.721" as="sourcePoint"/>
            <mxPoint x="1192.0100000000002" y="814.017" as="targetPoint"/>
            <Array as="points">
              <mxPoint x="1180" y="790"/>
            </Array>
          </mxGeometry>
        </mxCell>
        <mxCell id="CigY5o_EXDTEon-3jBMa-2" value="&lt;font style=&quot;font-size: 9px&quot;&gt;data_buf[] += sampled_bit&lt;br&gt;&lt;/font&gt;" style="text;html=1;resizable=0;points=[];align=center;verticalAlign=middle;labelBackgroundColor=#ffffff;" vertex="1" connectable="0" parent="CigY5o_EXDTEon-3jBMa-1">
          <mxGeometry x="-0.4557" y="-5" relative="1" as="geometry">
            <mxPoint x="42.5" y="-17" as="offset"/>
          </mxGeometry>
        </mxCell>
        <mxCell id="CigY5o_EXDTEon-3jBMa-4" value="" style="curved=1;endArrow=classic;html=1;exitX=1.005;exitY=0.375;exitDx=0;exitDy=0;entryX=1;entryY=0;entryDx=0;entryDy=0;exitPerimeter=0;" edge="1" parent="1" source="LsSuy4AF0oOqetUuykuO-61" target="LsSuy4AF0oOqetUuykuO-61">
          <mxGeometry width="50" height="50" relative="1" as="geometry">
            <mxPoint x="1039.759" y="566.97" as="sourcePoint"/>
            <mxPoint x="980" y="550" as="targetPoint"/>
            <Array as="points">
              <mxPoint x="1060" y="560"/>
            </Array>
          </mxGeometry>
        </mxCell>
        <mxCell id="CigY5o_EXDTEon-3jBMa-6" value="&lt;font style=&quot;font-size: 9px&quot;&gt;bit_cnt++&lt;/font&gt;" style="text;html=1;resizable=0;points=[];align=center;verticalAlign=middle;labelBackgroundColor=#ffffff;" vertex="1" connectable="0" parent="CigY5o_EXDTEon-3jBMa-4">
          <mxGeometry x="-0.4295" y="11" relative="1" as="geometry">
            <mxPoint x="20.5" y="-2.5" as="offset"/>
          </mxGeometry>
        </mxCell>
        <mxCell id="CigY5o_EXDTEon-3jBMa-8" value="" style="curved=1;endArrow=classic;html=1;entryX=0.5;entryY=0;entryDx=0;entryDy=0;exitX=0;exitY=0.5;exitDx=0;exitDy=0;" edge="1" parent="1" source="LsSuy4AF0oOqetUuykuO-48" target="LsSuy4AF0oOqetUuykuO-64">
          <mxGeometry width="50" height="50" relative="1" as="geometry">
            <mxPoint x="760" y="466.5" as="sourcePoint"/>
            <mxPoint x="710" y="516.5" as="targetPoint"/>
            <Array as="points">
              <mxPoint x="710" y="466.5"/>
            </Array>
          </mxGeometry>
        </mxCell>
        <mxCell id="CigY5o_EXDTEon-3jBMa-9" value="&lt;div&gt;&lt;font style=&quot;font-size: 9px&quot;&gt;&lt;u&gt;&lt;font style=&quot;font-size: 9px&quot;&gt;IDE == 1&lt;/font&gt;&lt;br&gt;&lt;/u&gt;&lt;/font&gt;&lt;/div&gt;&lt;font style=&quot;font-size: 9px&quot; size=&quot;3&quot;&gt;SRR = rtr_or_srr&lt;/font&gt;" style="text;html=1;resizable=0;points=[];align=center;verticalAlign=middle;labelBackgroundColor=#ffffff;" vertex="1" connectable="0" parent="CigY5o_EXDTEon-3jBMa-8">
          <mxGeometry x="-0.0143" y="12" relative="1" as="geometry">
            <mxPoint x="-45" y="-12" as="offset"/>
          </mxGeometry>
        </mxCell>
        <mxCell id="CigY5o_EXDTEon-3jBMa-10" value="" style="curved=1;endArrow=classic;html=1;exitX=1;exitY=0.5;exitDx=0;exitDy=0;entryX=0.5;entryY=0;entryDx=0;entryDy=0;" edge="1" parent="1" source="LsSuy4AF0oOqetUuykuO-48" target="LsSuy4AF0oOqetUuykuO-61">
          <mxGeometry width="50" height="50" relative="1" as="geometry">
            <mxPoint x="940" y="490" as="sourcePoint"/>
            <mxPoint x="890" y="540" as="targetPoint"/>
            <Array as="points">
              <mxPoint x="932" y="470"/>
            </Array>
          </mxGeometry>
        </mxCell>
        <mxCell id="CigY5o_EXDTEon-3jBMa-11" value="&lt;u&gt;&lt;font style=&quot;font-size: 9px&quot;&gt;IDE == 0&lt;br&gt;&lt;/font&gt;&lt;/u&gt;&lt;font style=&quot;font-size: 9px&quot;&gt;RTR = rtr_or_srr &amp;amp;&amp;amp; read r0 bit&lt;br&gt;&lt;/font&gt;" style="text;html=1;resizable=0;points=[];align=center;verticalAlign=middle;labelBackgroundColor=#ffffff;" vertex="1" connectable="0" parent="CigY5o_EXDTEon-3jBMa-10">
          <mxGeometry x="-0.3072" y="-17" relative="1" as="geometry">
            <mxPoint x="62" y="-34.5" as="offset"/>
          </mxGeometry>
        </mxCell>
        <mxCell id="CigY5o_EXDTEon-3jBMa-14" value="" style="curved=1;endArrow=classic;html=1;exitX=0.699;exitY=0.029;exitDx=0;exitDy=0;exitPerimeter=0;" edge="1" parent="1" source="LsSuy4AF0oOqetUuykuO-85">
          <mxGeometry width="50" height="50" relative="1" as="geometry">
            <mxPoint x="1440" y="553" as="sourcePoint"/>
            <mxPoint x="867" y="810" as="targetPoint"/>
            <Array as="points">
              <mxPoint x="890" y="760"/>
            </Array>
          </mxGeometry>
        </mxCell>
        <mxCell id="CigY5o_EXDTEon-3jBMa-15" value="&lt;font style=&quot;font-size: 9px&quot;&gt;bit_cnt++&lt;/font&gt;" style="text;html=1;resizable=0;points=[];align=center;verticalAlign=middle;labelBackgroundColor=#ffffff;" vertex="1" connectable="0" parent="CigY5o_EXDTEon-3jBMa-14">
          <mxGeometry x="-0.4141" y="-11" relative="1" as="geometry">
            <mxPoint x="21" y="-5" as="offset"/>
          </mxGeometry>
        </mxCell>
        <mxCell id="CigY5o_EXDTEon-3jBMa-20" value="" style="curved=1;endArrow=classic;html=1;exitX=0;exitY=1;exitDx=0;exitDy=0;entryX=0.5;entryY=0;entryDx=0;entryDy=0;" edge="1" parent="1" source="LsSuy4AF0oOqetUuykuO-61" target="LsSuy4AF0oOqetUuykuO-85">
          <mxGeometry width="50" height="50" relative="1" as="geometry">
            <mxPoint x="898" y="690" as="sourcePoint"/>
            <mxPoint x="848" y="740" as="targetPoint"/>
            <Array as="points">
              <mxPoint x="848" y="690"/>
            </Array>
          </mxGeometry>
        </mxCell>
        <mxCell id="CigY5o_EXDTEon-3jBMa-21" value="&lt;u&gt;&lt;font style=&quot;font-size: 9px&quot;&gt;bit_cnt == 4 &amp;amp;&amp;amp; RTR == 1&lt;/font&gt;&lt;/u&gt;&lt;br&gt;&lt;font style=&quot;font-size: 9px&quot;&gt;data_len = DLC&lt;/font&gt;&lt;u&gt;&lt;font style=&quot;font-size: 9px&quot;&gt;&lt;br&gt;&lt;/font&gt;&lt;/u&gt;" style="text;html=1;resizable=0;points=[];align=center;verticalAlign=middle;labelBackgroundColor=#ffffff;" vertex="1" connectable="0" parent="CigY5o_EXDTEon-3jBMa-20">
          <mxGeometry x="-0.1096" y="16" relative="1" as="geometry">
            <mxPoint x="-63.5" y="-4" as="offset"/>
          </mxGeometry>
        </mxCell>
        <mxCell id="CigY5o_EXDTEon-3jBMa-24" value="" style="curved=1;endArrow=classic;html=1;exitX=0;exitY=0.5;exitDx=0;exitDy=0;" edge="1" parent="1" source="CigY5o_EXDTEon-3jBMa-16">
          <mxGeometry width="50" height="50" relative="1" as="geometry">
            <mxPoint x="460" y="800" as="sourcePoint"/>
            <mxPoint x="391" y="791" as="targetPoint"/>
            <Array as="points">
              <mxPoint x="450" y="832"/>
            </Array>
          </mxGeometry>
        </mxCell>
        <mxCell id="CigY5o_EXDTEon-3jBMa-25" value="&lt;div&gt;&lt;span class=&quot;st&quot;&gt;ε&lt;/span&gt;&lt;/div&gt;" style="text;html=1;resizable=0;points=[];align=center;verticalAlign=middle;labelBackgroundColor=#ffffff;" vertex="1" connectable="0" parent="CigY5o_EXDTEon-3jBMa-24">
          <mxGeometry x="0.1821" y="-12" relative="1" as="geometry">
            <mxPoint x="16" y="-3" as="offset"/>
          </mxGeometry>
        </mxCell>
        <mxCell id="CigY5o_EXDTEon-3jBMa-27" value="" style="curved=1;endArrow=classic;html=1;entryX=0.03;entryY=0.327;entryDx=0;entryDy=0;entryPerimeter=0;" edge="1" parent="1" target="LsSuy4AF0oOqetUuykuO-23">
          <mxGeometry width="50" height="50" relative="1" as="geometry">
            <mxPoint x="193" y="420" as="sourcePoint"/>
            <mxPoint x="180" y="420" as="targetPoint"/>
            <Array as="points">
              <mxPoint x="140" y="410"/>
            </Array>
          </mxGeometry>
        </mxCell>
        <mxCell id="CigY5o_EXDTEon-3jBMa-34" value="" style="curved=1;endArrow=classic;html=1;" edge="1" parent="1" source="CigY5o_EXDTEon-3jBMa-30" target="CigY5o_EXDTEon-3jBMa-30">
          <mxGeometry width="50" height="50" relative="1" as="geometry">
            <mxPoint x="201.5" y="623" as="sourcePoint"/>
            <mxPoint x="251.5" y="573" as="targetPoint"/>
            <Array as="points">
              <mxPoint x="251.5" y="623"/>
            </Array>
          </mxGeometry>
        </mxCell>
        <mxCell id="CigY5o_EXDTEon-3jBMa-35" value="&lt;font style=&quot;font-size: 9px&quot;&gt;recessive_bit_cnt++&lt;/font&gt;" style="text;html=1;resizable=0;points=[];align=center;verticalAlign=middle;labelBackgroundColor=#ffffff;" vertex="1" connectable="0" parent="CigY5o_EXDTEon-3jBMa-34">
          <mxGeometry x="0.1304" y="-4" relative="1" as="geometry">
            <mxPoint x="24" y="19" as="offset"/>
          </mxGeometry>
        </mxCell>
        <mxCell id="CigY5o_EXDTEon-3jBMa-36" value="" style="curved=1;endArrow=classic;html=1;exitX=0.5;exitY=0;exitDx=0;exitDy=0;entryX=0;entryY=1;entryDx=0;entryDy=0;" edge="1" parent="1" source="CigY5o_EXDTEon-3jBMa-30" target="LsSuy4AF0oOqetUuykuO-23">
          <mxGeometry width="50" height="50" relative="1" as="geometry">
            <mxPoint x="60" y="520" as="sourcePoint"/>
            <mxPoint x="110" y="470" as="targetPoint"/>
            <Array as="points">
              <mxPoint x="100" y="460"/>
            </Array>
          </mxGeometry>
        </mxCell>
        <mxCell id="CigY5o_EXDTEon-3jBMa-37" value="&lt;div&gt;&lt;u&gt;&lt;font style=&quot;font-size: 9px&quot;&gt;recessive_bit_cnt == 7&lt;br&gt;&lt;/font&gt;&lt;/u&gt;&lt;font style=&quot;font-size: 9px&quot;&gt;&lt;font style=&quot;font-size: 9px&quot;&gt;recessive_bit_cnt = 0&lt;br&gt;&lt;/font&gt;&lt;/font&gt;&lt;/div&gt;" style="text;html=1;resizable=0;points=[];align=center;verticalAlign=middle;labelBackgroundColor=#ffffff;" vertex="1" connectable="0" parent="CigY5o_EXDTEon-3jBMa-36">
          <mxGeometry x="-0.4815" y="-13" relative="1" as="geometry">
            <mxPoint x="51" y="11.5" as="offset"/>
          </mxGeometry>
        </mxCell>
      </root>
    </mxGraphModel>
  </diagram>
</mxfile>
